<svg width="36" height="36" viewBox="0 0 36 36" fill="none" xmlns="http://www.w3.org/2000/svg">
<g clip-path="url(#clip0_15170_9572)">
<path fill-rule="evenodd" clip-rule="evenodd" d="M25.5 4.5C26.6478 4.49994 27.7523 4.93849 28.5874 5.72593C29.4225 6.51336 29.9252 7.59016 29.9925 8.736L30 9V15.525L30.891 15.129C31.812 14.7195 32.874 15.354 32.991 16.326L33 16.5V28.5C33.0002 29.2569 32.7144 29.9859 32.1998 30.5408C31.6851 31.0958 30.9797 31.4357 30.225 31.4925L30 31.5H6C5.24314 31.5002 4.51415 31.2144 3.95918 30.6998C3.40421 30.1851 3.06426 29.4797 3.0075 28.725L3 28.5V16.5C3 15.492 4.0125 14.7795 4.9455 15.0675L5.1105 15.129L6 15.525V9C5.99994 7.85218 6.43849 6.74773 7.22593 5.91261C8.01336 5.07749 9.09016 4.57484 10.236 4.5075L10.5 4.5H25.5ZM30 18.8085L19.218 23.5995C18.8345 23.7699 18.4196 23.8579 18 23.8579C17.5804 23.8579 17.1655 23.7699 16.782 23.5995L6 18.81V28.5H30V18.8085ZM25.5 7.5H10.5C10.1022 7.5 9.72064 7.65804 9.43934 7.93934C9.15803 8.22064 9 8.60218 9 9V16.8585L18 20.859L27 16.8585V9C27 8.60218 26.842 8.22064 26.5607 7.93934C26.2794 7.65804 25.8978 7.5 25.5 7.5ZM18 12C18.3823 12.0004 18.75 12.1468 19.0281 12.4093C19.3061 12.6717 19.4734 13.0304 19.4958 13.4121C19.5182 13.7938 19.394 14.1696 19.1486 14.4627C18.9032 14.7559 18.5551 14.9443 18.1755 14.9895L18 15H15C14.6177 14.9996 14.25 14.8532 13.9719 14.5907C13.6939 14.3283 13.5266 13.9696 13.5042 13.5879C13.4818 13.2062 13.606 12.8304 13.8514 12.5373C14.0968 12.2441 14.4449 12.0557 14.8245 12.0105L15 12H18Z" fill="#336DF2"/>
</g>
<defs>
<clipPath id="clip0_15170_9572">
<rect width="36" height="36" fill="white"/>
</clipPath>
</defs>
</svg>
